<svg
    xmlns="http://www.w3.org/2000/svg"
    width="46"
    height="46"
    viewBox="0 0 46 46"
>
    <g
    id="Ellipse_6"
    data-name="Ellipse 6"
    fill="none"
    stroke="rgba(255,255,255,0.4)"
    stroke-width="6"
    >
    <circle cx="23" cy="23" r="23" stroke="none" />
    <circle cx="23" cy="23" r="20" fill="none" />
    </g>
    <g
    id="Subtraction_3"
    data-name="Subtraction 3"
    transform="translate(-4.512)"
    fill="rgba(255,255,255,0.8)"
    >
    <path
        d="M7.349,34.088h0A23.009,23.009,0,0,1,27.512,0V6a17,17,0,0,0-14.954,25.08L7.35,34.088Z"
        stroke="none"
    />
    <path
        d="M 7.348822116851807 34.08819961547852 L 7.34832239151001 34.08729934692383 C 5.492588996887207 30.7240104675293 4.51170015335083 26.89022254943848 4.51170015335083 23.00040054321289 C 4.51170015335083 16.8565673828125 6.904099941253662 11.08059978485107 11.24820041656494 6.736499786376953 C 15.59230041503906 2.392399787902832 21.36826705932617 -1.92260742437611e-07 27.51210021972656 -1.92260742437611e-07 L 27.51210021972656 6.00029993057251 C 22.97794532775879 6.001244068145752 18.71115493774414 7.771499633789062 15.49672222137451 10.98594379425049 C 12.28226661682129 14.20038890838623 10.51200008392334 18.46719932556152 10.51200008392334 23.00040054321289 C 10.51200008392334 25.81944465637207 11.21957778930664 28.61353302001953 12.5582447052002 31.08056640625 L 7.348822116851807 34.08819961547852 Z"
        stroke="none"
        fill="rgba(255,255,255,0.8)"
    />
    </g>
</svg>